<?xml version="1.0" encoding="UTF-8" standalone="no"?>
<!-- Created with Inkscape (http://www.inkscape.org/) -->

<svg
   xmlns:dc="http://purl.org/dc/elements/1.1/"
   xmlns:cc="http://creativecommons.org/ns#"
   xmlns:rdf="http://www.w3.org/1999/02/22-rdf-syntax-ns#"
   xmlns:svg="http://www.w3.org/2000/svg"
   xmlns="http://www.w3.org/2000/svg"
   xmlns:sodipodi="http://sodipodi.sourceforge.net/DTD/sodipodi-0.dtd"
   xmlns:inkscape="http://www.inkscape.org/namespaces/inkscape"
   width="1250"
   height="300"
   id="svg2"
   version="1.1"
   inkscape:version="0.91 r13725"
   sodipodi:docname="1b.svg">
  <defs
     id="defs4">
    <marker
       inkscape:stockid="Arrow1Lstart"
       orient="auto"
       refY="0.0"
       refX="0.0"
       id="Arrow1Lstart"
       style="overflow:visible"
       inkscape:isstock="true">
      <path
         id="path4435"
         d="M 0.0,0.0 L 5.0,-5.0 L -12.5,0.0 L 5.0,5.0 L 0.0,0.0 z "
         style="fill-rule:evenodd;stroke:#000000;stroke-width:1pt;stroke-opacity:1;fill:#000000;fill-opacity:1"
         transform="scale(0.8) translate(12.5,0)" />
    </marker>
    <marker
       inkscape:stockid="Arrow1Lend"
       orient="auto"
       refY="0.0"
       refX="0.0"
       id="Arrow1Lend"
       style="overflow:visible;"
       inkscape:isstock="true">
      <path
         id="path4438"
         d="M 0.0,0.0 L 5.0,-5.0 L -12.5,0.0 L 5.0,5.0 L 0.0,0.0 z "
         style="fill-rule:evenodd;stroke:#000000;stroke-width:1pt;stroke-opacity:1;fill:#000000;fill-opacity:1"
         transform="scale(0.8) rotate(180) translate(12.5,0)" />
    </marker>
  </defs>
  <sodipodi:namedview
     id="base"
     pagecolor="#ffffff"
     bordercolor="#666666"
     borderopacity="1.0"
     inkscape:pageopacity="0.0"
     inkscape:pageshadow="2"
     inkscape:zoom="0.5"
     inkscape:cx="553.12325"
     inkscape:cy="1173.4021"
     inkscape:document-units="px"
     inkscape:current-layer="layer1"
     showgrid="false"
     showguides="true"
     inkscape:guide-bbox="true"
     inkscape:window-width="1080"
     inkscape:window-height="1898"
     inkscape:window-x="1912"
     inkscape:window-y="-8"
     inkscape:window-maximized="1">
    <inkscape:grid
       type="xygrid"
       id="grid4415"
       units="px"
       spacingx="1"
       spacingy="1" />
  </sodipodi:namedview>
  <metadata
     id="metadata7">
    <rdf:RDF>
      <cc:Work
         rdf:about="">
        <dc:format>image/svg+xml</dc:format>
        <dc:type
           rdf:resource="http://purl.org/dc/dcmitype/StillImage" />
        <dc:title></dc:title>
      </cc:Work>
    </rdf:RDF>
  </metadata>
  <g
     inkscape:label="Layer 1"
     inkscape:groupmode="layer"
     id="layer1"
     transform="translate(0,-752.36218)">
    <circle
       style="color:#000000;display:inline;overflow:visible;visibility:visible;fill:#ff0000;fill-opacity:1;fill-rule:nonzero;stroke:#ff0000;stroke-width:4.19999981;stroke-linecap:round;stroke-linejoin:miter;stroke-miterlimit:4;stroke-dasharray:none;stroke-dashoffset:0;stroke-opacity:1;marker:none;enable-background:accumulate"
       id="path2985"
       cx="50.74884"
       cy="904.36218"
       r="30" />
    <circle
       style="color:#000000;display:inline;overflow:visible;visibility:visible;fill:#00ffff;fill-opacity:1;fill-rule:nonzero;stroke:#00ffff;stroke-width:4.19999981;stroke-linecap:round;stroke-linejoin:miter;stroke-miterlimit:4;stroke-dasharray:none;stroke-dashoffset:0;stroke-opacity:1;marker:none;enable-background:accumulate"
       id="path2985-1"
       cx="392.04041"
       cy="904.36218"
       r="30" />
    <text
       xml:space="preserve"
       style="font-style:normal;font-variant:normal;font-weight:bold;font-stretch:normal;font-size:22px;line-height:125%;font-family:Arial;-inkscape-font-specification:'Sans Bold';letter-spacing:0px;word-spacing:0px;fill:#000000;fill-opacity:1;stroke:none"
       x="608.04822"
       y="857.99115"
       id="text3017"
       sodipodi:linespacing="125%"><tspan
         sodipodi:role="line"
         id="tspan3019"
         x="608.04822"
         y="857.99115"
         style="font-weight:normal;-inkscape-font-specification:Arial" /></text>
    <text
       xml:space="preserve"
       style="font-style:normal;font-variant:normal;font-weight:bold;font-stretch:normal;font-size:22px;line-height:125%;font-family:Arial;-inkscape-font-specification:'Sans Bold';letter-spacing:0px;word-spacing:0px;fill:#000000;fill-opacity:1;stroke:none"
       x="215.15196"
       y="786.09161"
       id="text3801"
       sodipodi:linespacing="125%"><tspan
         sodipodi:role="line"
         id="tspan3803"
         x="215.15196"
         y="786.09161">d</tspan></text>
    <circle
       style="color:#000000;display:inline;overflow:visible;visibility:visible;fill:#00ff00;fill-opacity:1;fill-rule:nonzero;stroke:#00ff00;stroke-width:4.19999981;stroke-linecap:round;stroke-linejoin:miter;stroke-miterlimit:4;stroke-dasharray:none;stroke-dashoffset:0;stroke-opacity:1;marker:none;enable-background:accumulate"
       id="path2985-1-7"
       cx="731.51282"
       cy="904.36218"
       r="30" />
    <text
       xml:space="preserve"
       style="font-style:normal;font-variant:normal;font-weight:bold;font-stretch:normal;font-size:22px;line-height:125%;font-family:Arial;-inkscape-font-specification:'Sans Bold';letter-spacing:0px;word-spacing:0px;fill:#000000;fill-opacity:1;stroke:none"
       x="563.6651"
       y="-226.79201"
       id="text3827"
       sodipodi:linespacing="125%"
       transform="translate(0,802.36218)"><tspan
         sodipodi:role="line"
         id="tspan3829"
         x="563.6651"
         y="-226.79201" /></text>
    <g
       transform="matrix(-6.3282102,0,0,-3.289502,738.27277,4399.8726)"
       id="layer1-8"
       inkscape:label="Layer 1">
      <g
         id="text2987"
         style="font-style:normal;font-weight:normal;font-size:78.59629822px;line-height:125%;font-family:Sans;letter-spacing:0px;word-spacing:0px;fill:#000000;fill-opacity:1;stroke:none"
         transform="matrix(0,-0.633725,-1.57797,0,0,0)">
        <path
           id="path2985-8"
           style="font-variant:normal;font-stretch:normal;line-height:125%;font-family:NSimSun;text-align:start;text-anchor:start"
           d="m -1637.9508,-33.933505 c -2.6608,0.204705 -4.4518,1.074585 -5.3728,2.609643 -0.9211,1.535107 -1.3816,3.530714 -1.3816,5.986828 l 0,13.201722 c 0,4.5029135 -0.8187,7.6242477 -2.4561,9.3640117 -1.6374,1.7397562 -4.1959,2.60963622 -7.6754,2.60964267 l 0,-0.85134397 c 2.8655,-4.3e-6 4.8099,-1.1851174 5.8333,-2.7201978 1.0234,-1.5350844 1.5351,-4.5132321 1.5351,-7.1740456 l 0,-15.043823 c 0,-2.865468 0.6652,-5.014583 1.9956,-6.447353 1.3304,-1.432717 2.9166,-2.149089 4.7587,-2.149117 l 0,-0.614034 c -1.6374,2.9e-5 -3.1725,-0.614004 -4.6052,-1.8421 -1.4328,-1.228036 -2.1491,-3.47949 -2.1491,-6.75437 l 0,-15.043823 c 0,-2.865434 -0.3318,-5.624977 -1.3552,-7.057779 -1.0234,-1.432685 -3.1477,-3.076668 -6.0132,-3.076729 l 0,-0.611079 c 3.4795,6.3e-5 6.038,0.869943 7.6754,2.609643 1.6374,1.73982 2.4561,4.861154 2.4561,9.364012 l 0,13.201722 c 0,2.865525 0.5117,4.912301 1.5351,6.140335 1.0234,1.228098 2.7631,2.046809 5.2193,2.456135 z"
           inkscape:connector-curvature="0"
           sodipodi:nodetypes="cssssccsssscccssccccssscc" />
      </g>
    </g>
    <text
       xml:space="preserve"
       style="font-style:normal;font-variant:normal;font-weight:bold;font-stretch:normal;font-size:22px;line-height:125%;font-family:Arial;-inkscape-font-specification:'Sans Bold';letter-spacing:0px;word-spacing:0px;fill:#000000;fill-opacity:1;stroke:none;stroke-width:1px;stroke-linecap:butt;stroke-linejoin:miter;stroke-opacity:1"
       x="371.59241"
       y="1032.2788"
       id="text3369"
       sodipodi:linespacing="125%"><tspan
         sodipodi:role="line"
         id="tspan3371"
         x="371.59241"
         y="1032.2788">x+d</tspan></text>
    <g
       transform="matrix(3.1916022,0,0,3.289502,46.087792,-2592.876)"
       id="layer1-8-2"
       inkscape:label="Layer 1">
      <g
         id="text2987-4"
         style="font-style:normal;font-weight:normal;font-size:78.59629822px;line-height:125%;font-family:Sans;letter-spacing:0px;word-spacing:0px;fill:#000000;fill-opacity:1;stroke:none"
         transform="matrix(0,-0.633725,-1.57797,0,0,0)">
        <path
           id="path2985-8-5"
           style="font-variant:normal;font-stretch:normal;line-height:125%;font-family:NSimSun;text-align:start;text-anchor:start"
           d="m -1637.9508,-33.933505 c -2.6608,0.204705 -4.4518,1.074585 -5.3728,2.609643 -0.9211,1.535107 -1.3816,3.530714 -1.3816,5.986828 l 0,13.201722 c 0,4.5029135 -0.8187,7.6242477 -2.4561,9.3640117 -1.6374,1.7397562 -4.1959,2.60963622 -7.6754,2.60964267 l 0,-1.35841177 c 2.8655,-4.3e-6 4.8099,-1.5582513 5.8333,-3.0933317 1.0234,-1.5350844 1.5351,-3.6330304 1.5351,-6.2938439 l 0,-15.043823 c 0,-2.865468 0.6652,-5.014583 1.9956,-6.447353 1.3304,-1.432717 2.9166,-2.149089 4.7587,-2.149117 l 0,-0.614034 c -1.6374,2.9e-5 -3.1725,-0.614004 -4.6052,-1.8421 -1.4328,-1.228036 -2.1491,-3.47949 -2.1491,-6.75437 l 0,-15.043823 c 0,-2.865434 -0.5117,-5.01455 -1.5351,-6.447352 -1.0234,-1.432685 -2.9678,-2.149057 -5.8333,-2.149118 l 0,-2.149117 c 3.4795,6.3e-5 6.038,0.869943 7.6754,2.609643 1.6374,1.73982 2.4561,4.861154 2.4561,9.364012 l 0,13.201722 c 0,2.865525 0.5117,4.912301 1.5351,6.140335 1.0234,1.228098 2.7631,2.046809 5.2193,2.456135 z"
           inkscape:connector-curvature="0"
           sodipodi:nodetypes="ccsssccsssccccssccccssccc" />
      </g>
    </g>
    <g
       transform="matrix(3.1916022,0,0,3.289502,387.58325,-2596.5612)"
       id="layer1-8-2-7"
       inkscape:label="Layer 1">
      <g
         id="text2987-4-5"
         style="font-style:normal;font-weight:normal;font-size:78.59629822px;line-height:125%;font-family:Sans;letter-spacing:0px;word-spacing:0px;fill:#000000;fill-opacity:1;stroke:none"
         transform="matrix(0,-0.633725,-1.57797,0,0,0)">
        <path
           id="path2985-8-5-8"
           style="font-variant:normal;font-stretch:normal;line-height:125%;font-family:NSimSun;text-align:start;text-anchor:start"
           d="m -1639.3924,-33.830998 c -2.6608,0.204084 -4.4518,1.071323 -5.3728,2.601722 -0.9211,1.530447 -1.3816,3.519997 -1.3816,5.968656 l 0,13.161651 c 0,4.4892463 -0.8187,7.6011064 -2.4561,9.3355897 -1.6374,1.7344755 -4.1959,2.60171524 -7.6754,2.60172167 l 0,-1.35428857 c 2.8655,-4.3e-6 4.8099,-1.5535216 5.8333,-3.0839426 1.0234,-1.530425 1.5351,-3.6220032 1.5351,-6.2747402 l 0,-14.998161 c 0,-2.856771 0.6652,-4.999362 1.9956,-6.427784 1.3304,-1.428368 2.9166,-2.142565 4.7587,-2.142593 l 0,-0.612171 c -1.6374,2.9e-5 -3.1725,-0.61214 -4.6052,-1.836508 -1.4328,-1.224309 -2.1491,-3.468929 -2.1491,-6.733869 l 0,-14.998161 c 0,-2.856736 -0.5117,-4.999329 -1.5351,-6.427782 -1.0234,-1.428337 -2.9678,-2.698145 -5.8333,-2.698205 l 0,-1.665961 c 3.4795,6.3e-5 6.038,0.94628 7.6754,2.680699 1.6374,1.734539 2.4561,4.846399 2.4561,9.33559 l 0,13.161651 c 0,2.856827 0.5117,4.897391 1.5351,6.121697 1.0234,1.224371 2.7631,2.040597 5.2193,2.44868 z"
           inkscape:connector-curvature="0"
           sodipodi:nodetypes="ccsssccsssccccssccccssccc" />
      </g>
    </g>
    <text
       xml:space="preserve"
       style="font-style:normal;font-variant:normal;font-weight:bold;font-stretch:normal;font-size:22px;line-height:125%;font-family:Arial;-inkscape-font-specification:'Sans Bold';letter-spacing:0px;word-spacing:0px;fill:#000000;fill-opacity:1;stroke:none;stroke-width:1px;stroke-linecap:butt;stroke-linejoin:miter;stroke-opacity:1"
       x="546.92731"
       y="786.09161"
       id="text3394"
       sodipodi:linespacing="125%"><tspan
         sodipodi:role="line"
         id="tspan3396"
         x="546.92731"
         y="786.09161">x</tspan></text>
    <rect
       style="color:#000000;display:inline;overflow:visible;visibility:visible;opacity:1;fill:#4d4d4d;fill-opacity:1;fill-rule:nonzero;stroke:#4d4d4d;stroke-width:6.4000001;stroke-linecap:round;stroke-linejoin:miter;stroke-miterlimit:4;stroke-dasharray:none;stroke-dashoffset:0;stroke-opacity:1;marker:none;enable-background:accumulate"
       id="rect3398"
       width="312.5412"
       height="194.26445"
       x="885.90442"
       y="797.7182"
       ry="0.21407515" />
    <circle
       style="color:#000000;display:inline;overflow:visible;visibility:visible;fill:#ff0000;fill-opacity:1;fill-rule:nonzero;stroke:#ff0000;stroke-width:4.19999981;stroke-linecap:round;stroke-linejoin:miter;stroke-miterlimit:4;stroke-dasharray:none;stroke-dashoffset:0;stroke-opacity:1;marker:none;enable-background:accumulate"
       id="path2985-6"
       cx="908.66681"
       cy="838.98895"
       r="13.029437" />
    <text
       xml:space="preserve"
       style="font-style:normal;font-variant:normal;font-weight:normal;font-stretch:normal;font-size:22px;line-height:125%;font-family:Arial;-inkscape-font-specification:Sans;letter-spacing:0px;word-spacing:0px;fill:#ffffff;fill-opacity:1;stroke:none"
       x="944.4621"
       y="844.68231"
       id="text3005-1"
       sodipodi:linespacing="125%"><tspan
         sodipodi:role="line"
         id="tspan3007-1"
         x="944.4621"
         y="844.68231"
         style="font-style:normal;font-variant:normal;font-weight:bold;font-stretch:normal;font-size:22px;line-height:125%;font-family:Arial;-inkscape-font-specification:'Arial, Bold';text-align:start;writing-mode:lr-tb;text-anchor:start">Negative Charge: -6q</tspan></text>
    <circle
       style="color:#000000;display:inline;overflow:visible;visibility:visible;fill:#00ffff;fill-opacity:1;fill-rule:nonzero;stroke:#00ffff;stroke-width:4.19999981;stroke-linecap:round;stroke-linejoin:miter;stroke-miterlimit:4;stroke-dasharray:none;stroke-dashoffset:0;stroke-opacity:1;marker:none;enable-background:accumulate"
       id="path2985-6-3"
       cx="908.66681"
       cy="894.30267"
       r="13.029437" />
    <text
       xml:space="preserve"
       style="font-style:normal;font-variant:normal;font-weight:bold;font-stretch:normal;font-size:22px;line-height:125%;font-family:Arial;-inkscape-font-specification:'Sans Bold';letter-spacing:0px;word-spacing:0px;fill:#ffffff;fill-opacity:1;stroke:none"
       x="944.49432"
       y="899.99603"
       id="text3009-0"
       sodipodi:linespacing="125%"><tspan
         sodipodi:role="line"
         id="tspan3011-8"
         x="944.49432"
         y="899.99603"
         style="font-style:normal;font-variant:normal;font-weight:bold;font-stretch:normal;font-size:22px;line-height:125%;font-family:Arial;-inkscape-font-specification:'Arial, Bold';text-align:start;writing-mode:lr-tb;text-anchor:start;fill:#ffffff">Positive Charge: +q</tspan></text>
    <circle
       style="color:#000000;display:inline;overflow:visible;visibility:visible;fill:#00ff00;fill-opacity:1;fill-rule:nonzero;stroke:#00ff00;stroke-width:4.19999981;stroke-linecap:round;stroke-linejoin:miter;stroke-miterlimit:4;stroke-dasharray:none;stroke-dashoffset:0;stroke-opacity:1;marker:none;enable-background:accumulate"
       id="path2985-6-3-8"
       cx="908.66681"
       cy="950.71185"
       r="13.029437" />
    <text
       xml:space="preserve"
       style="font-style:normal;font-variant:normal;font-weight:bold;font-stretch:normal;font-size:22px;line-height:125%;font-family:Arial;-inkscape-font-specification:'Sans Bold';letter-spacing:0px;word-spacing:0px;fill:#ffffff;fill-opacity:1;stroke:none;stroke-width:1px;stroke-linecap:butt;stroke-linejoin:miter;stroke-opacity:1"
       x="945.62225"
       y="956.40521"
       id="text3496"
       sodipodi:linespacing="125%"><tspan
         sodipodi:role="line"
         id="tspan3498"
         x="945.62225"
         y="956.40521">Test Charge: Undefined</tspan></text>
    <text
       xml:space="preserve"
       style="font-style:normal;font-variant:normal;font-weight:bold;font-stretch:normal;font-size:22px;line-height:125%;font-family:Arial;-inkscape-font-specification:'Sans Bold';letter-spacing:0px;word-spacing:0px;fill:#000000;fill-opacity:1;stroke:none;stroke-width:1px;stroke-linecap:butt;stroke-linejoin:miter;stroke-opacity:1"
       x="34.329407"
       y="910.09851"
       id="text4417"
       sodipodi:linespacing="125%"><tspan
         sodipodi:role="line"
         id="tspan4419"
         x="34.329407"
         y="910.09851">-6q</tspan></text>
    <text
       xml:space="preserve"
       style="font-style:normal;font-variant:normal;font-weight:bold;font-stretch:normal;font-size:22px;line-height:125%;font-family:Arial;-inkscape-font-specification:'Sans Bold';letter-spacing:0px;word-spacing:0px;fill:#000000;fill-opacity:1;stroke:none;stroke-width:1px;stroke-linecap:butt;stroke-linejoin:miter;stroke-opacity:1"
       x="379.13367"
       y="908.83093"
       id="text4421"
       sodipodi:linespacing="125%"><tspan
         sodipodi:role="line"
         id="tspan4423"
         x="379.13367"
         y="908.83093">+q</tspan></text>
    <text
       xml:space="preserve"
       style="font-style:normal;font-variant:normal;font-weight:bold;font-stretch:normal;font-size:22px;line-height:125%;font-family:Arial;-inkscape-font-specification:'Sans Bold';letter-spacing:0px;word-spacing:0px;fill:#000000;fill-opacity:1;stroke:none;stroke-width:1px;stroke-linecap:butt;stroke-linejoin:miter;stroke-opacity:1"
       x="709.61487"
       y="912.1073"
       id="text4425"
       sodipodi:linespacing="125%"><tspan
         sodipodi:role="line"
         id="tspan4427"
         x="709.61487"
         y="912.1073">Test</tspan></text>
    <path
       style="fill:none;fill-rule:evenodd;stroke:#000000;stroke-width:1px;stroke-linecap:butt;stroke-linejoin:miter;stroke-opacity:1;marker-start:url(#Arrow1Lstart);marker-end:url(#Arrow1Lend)"
       d="m 27,970.36218 0,54.00002 52.711864,0"
       id="path4429"
       inkscape:connector-curvature="0"
       sodipodi:nodetypes="ccc" />
    <text
       xml:space="preserve"
       style="font-style:normal;font-variant:normal;font-weight:bold;font-stretch:normal;font-size:22px;line-height:125%;font-family:Arial;-inkscape-font-specification:'Sans Bold';letter-spacing:0px;word-spacing:0px;fill:#000000;fill-opacity:1;stroke:none;stroke-width:1px;stroke-linecap:butt;stroke-linejoin:miter;stroke-opacity:1"
       x="6.010407"
       y="1004.7642"
       id="text4785"
       sodipodi:linespacing="125%"><tspan
         sodipodi:role="line"
         id="tspan4787"
         x="6.010407"
         y="1004.7642">y</tspan></text>
    <text
       xml:space="preserve"
       style="font-style:normal;font-variant:normal;font-weight:bold;font-stretch:normal;font-size:22px;line-height:125%;font-family:Arial;-inkscape-font-specification:'Sans Bold';letter-spacing:0px;word-spacing:0px;fill:#000000;fill-opacity:1;stroke:none;stroke-width:1px;stroke-linecap:butt;stroke-linejoin:miter;stroke-opacity:1"
       x="39.708893"
       y="1046.1195"
       id="text4789"
       sodipodi:linespacing="125%"><tspan
         sodipodi:role="line"
         id="tspan4791"
         x="39.708893"
         y="1046.1195">x</tspan></text>
  </g>
</svg>
